<svg id="LMS" xmlns="http://www.w3.org/2000/svg" viewBox="0 0 100 100"><defs><style>.cls-1{fill:none;}</style></defs><rect id="Background" class="cls-1" width="100" height="100"/><path d="M29.8,62H12.08V33.39h3.79V58.62H29.8Z" transform="translate(0)"/><path d="M61.24,62H57.65V37.67L49.48,62h-3.4L37.92,37.67V62H34.33V33.39H40l7.75,23.87,7.8-23.87h5.68Z" transform="translate(0)"/><path d="M78.45,62.51c-4,0-7.06-.9-9.06-2.72a9.47,9.47,0,0,1-3.15-7h3.65a6,6,0,0,0,2.67,4.74,10.34,10.34,0,0,0,5.73,1.53,9,9,0,0,0,5.13-1.31,4.07,4.07,0,0,0,1.94-3.55,3.62,3.62,0,0,0-2-3.44,29.38,29.38,0,0,0-6.92-2.12q-4.92-1-7.05-2.9a6.19,6.19,0,0,1-2.14-4.94A7,7,0,0,1,70,35.13a11.46,11.46,0,0,1,7.39-2.23,12.57,12.57,0,0,1,7.81,2.25,7.94,7.94,0,0,1,3.15,6.34H84.68q-.57-5.19-7.11-5.19a8.63,8.63,0,0,0-4.9,1.19,3.67,3.67,0,0,0-1.74,3.16,3,3,0,0,0,1.39,2.7,17.66,17.66,0,0,0,5.22,1.74,48.48,48.48,0,0,1,6.06,1.66,9.56,9.56,0,0,1,3.85,2.55,6.54,6.54,0,0,1,1.6,4.64,7.64,7.64,0,0,1-2.94,6.13A11.58,11.58,0,0,1,78.45,62.51Z" transform="translate(0)"/></svg>